<svg width="320" height="72" viewBox="0 0 320 72" fill="none" xmlns="http://www.w3.org/2000/svg" role="img" aria-label="Shraddha Surana logo">
  <defs>
    <linearGradient id="logo-gradient" x1="6" y1="10" x2="58" y2="58" gradientUnits="userSpaceOnUse">
      <stop stop-color="#F6B73C"/>
      <stop offset="0.52" stop-color="#25C1B2"/>
      <stop offset="1" stop-color="#FF785A"/>
    </linearGradient>
  </defs>
  <g>
    <rect x="4" y="8" width="56" height="56" rx="15" fill="#0F1F3B" stroke="#3F5D93"/>
    <path d="M42.8 19.2C39 16.9 34.1 16.4 29.8 18C25.5 19.5 22.3 22.8 21.5 26.9C20.8 31 22.5 34.7 26.1 37.3C29.1 39.5 33.1 40.8 35 43.1C36.8 45.3 35.9 48 32.9 49.5C29.7 51.1 25.6 50.9 22.2 48.8" stroke="url(#logo-gradient)" stroke-width="4.1" stroke-linecap="round"/>
    <circle cx="43.5" cy="18.8" r="2.7" fill="#F6B73C"/>
    <circle cx="20.8" cy="48.6" r="2.7" fill="#25C1B2"/>
    <circle cx="31.4" cy="33.9" r="1.8" fill="#FF785A"/>
  </g>
  <text x="76" y="32" fill="#F4F7FD" font-size="20" font-family="Sora, 'Trebuchet MS', sans-serif" font-weight="700" letter-spacing="0.2">Shraddha</text>
  <text x="76" y="53" fill="#AFC3E8" font-size="18" font-family="Sora, 'Trebuchet MS', sans-serif" font-weight="500" letter-spacing="0.2">Surana</text>
</svg>
